<svg width="596" height="265" viewBox="0 0 596 265" fill="none" xmlns="http://www.w3.org/2000/svg">
<path d="M0 264V4H66V18.7266H7.21786V126.51H60.5145V141.236H7.21786V264H0Z" fill="white"/>
<path d="M578.236 29.2894C583.637 39.1359 586.644 52.0282 587.262 67.9663H594.377C594.031 54.8653 592.276 43.2247 589.112 33.0444C585.948 22.7806 581.668 14.7281 576.267 8.88696C570.867 2.96231 564.638 0 557.577 0C550.557 0 544.25 2.92059 538.66 8.76175C533.103 14.603 528.707 22.6555 525.465 32.9192C522.227 43.0996 520.604 54.7819 520.604 67.9663C520.604 83.6537 523.035 96.7547 527.896 107.269C532.794 117.783 539.871 126.086 549.132 132.178L562.961 141.19C568.63 144.861 573.375 149.034 577.194 153.706C581.05 158.38 583.963 163.929 585.931 170.354C587.897 176.779 588.881 184.498 588.881 193.51C588.881 204.692 587.513 214.496 584.774 222.925C582.035 231.353 578.236 237.945 573.375 242.701C568.514 247.374 562.903 249.711 556.538 249.711C550.635 249.711 545.387 247.624 540.798 243.452C536.209 239.28 532.526 233.355 529.749 225.678C527.01 217.917 525.445 208.738 525.061 198.141H517.654C518.079 211.159 519.929 222.674 523.208 232.688C526.487 242.618 530.944 250.378 536.575 255.969C542.244 261.56 548.901 264.355 556.538 264.355C564.56 264.355 571.522 261.309 577.425 255.218C583.365 249.043 587.938 240.615 591.139 229.934C594.377 219.253 596 207.153 596 193.635C596 184.373 595.209 176.195 593.627 169.102C592.082 162.009 589.903 155.834 587.089 150.577C584.309 145.237 581.03 140.647 577.252 136.809C573.511 132.971 569.421 129.591 564.984 126.67L552.024 118.409C548.436 116.072 545.157 113.361 542.186 110.273C539.216 107.186 536.653 103.598 534.491 99.5084C532.332 95.3367 530.655 90.6217 529.457 85.3647C528.299 80.0239 527.722 74.0576 527.722 67.4656C527.722 57.2018 528.995 48.1063 531.541 40.179C534.087 32.2517 537.597 25.9932 542.071 21.4037C546.545 16.8142 551.657 14.5195 557.404 14.5195C565.931 14.5195 572.873 19.4428 578.236 29.2894Z" fill="white"/>
<path d="M336.451 68.251V264.354H343.739V200.487L360.706 169.654L407.636 264.354H416.731L365.368 161.036L417.2 68.251H407.52L344.555 182.102H343.739V68.251H336.451Z" fill="white"/>
<path d="M300.923 154.116H315C313.387 147.688 310.271 141.439 305.652 135.368C301.106 129.298 295.095 123.839 287.616 118.993C280.211 114.096 271.449 110.218 261.332 107.362C251.287 104.454 239.96 103 227.349 103C208.58 103 192.047 106.341 177.75 113.024C163.453 119.656 152.236 129.017 144.097 141.107C136.032 153.198 132 167.329 132 183.5C132 199.671 136.032 213.802 144.097 225.892C152.236 237.983 163.453 247.369 177.75 254.052C192.047 260.684 208.58 264 227.349 264C239.96 264 251.287 262.572 261.332 259.715C271.449 256.807 280.211 252.904 287.616 248.007C295.095 243.059 301.106 237.549 305.652 231.479C310.271 225.408 313.387 219.21 315 212.884H300.923C299.457 218.189 296.708 223.342 292.675 228.341C288.643 233.34 283.437 237.855 277.059 241.885C270.753 245.864 263.421 249.027 255.063 251.374C246.705 253.669 237.467 254.817 227.349 254.817C212.539 254.817 198.902 252.113 186.438 246.706C174.047 241.248 164.113 233.213 156.635 222.602C149.229 211.991 145.527 198.957 145.527 183.5C145.527 168.145 149.229 155.162 156.635 144.551C164.113 133.94 174.047 125.905 186.438 120.447C198.902 114.937 212.539 112.183 227.349 112.183C237.467 112.183 246.705 113.356 255.063 115.702C263.421 118.049 270.753 121.237 277.059 125.268C283.437 129.247 288.643 133.736 292.675 138.735C296.708 143.684 299.457 148.811 300.923 154.116Z" fill="white"/>
<path d="M433.543 264.354V255.67H471.498V111.029H478.743V255.67H516.695V264.354H433.543Z" fill="white"/>
<path d="M132 68L81.0348 264H72L122.965 68H132Z" fill="white"/>
</svg>
